# xmcd CD database file
#
# Track frame offsets:
#	150
#	14393
#	30732
#	49207
#
# Disc length: 1258 seconds
#
# Revision: 0
# Processed by: cddbd v1.5.1PL0 Copyright (c) Steve Scherf et al.
# Submitted via: CDex 1.51
#
DISCID=2b04e804
DTITLE=The Little Flames - Put Your Dukes Up, John
DYEAR=2005
DGENRE=Rock
TTITLE0=Put Your Dukes Up, John
TTITLE1=Uniform (live)
TTITLE2=Skinny Bones
TTITLE3=data
EXTD=YEAR: 2005
EXTT0=
EXTT1=
EXTT2=
EXTT3=
PLAYORDER=
